<svg width="1200" height="1200" xmlns="http://www.w3.org/2000/svg" xmlns:xlink="http://www.w3.org/1999/xlink" version="1.1"><g transform="scale(3.385579937304075) translate(17.72222222222222, 34.722222222222236)">            <radialGradient id="SvgjsRadialGradient1013"><stop id="SvgjsStop1014" stop-color="#f5ec9b" offset="0"/><stop id="SvgjsStop1015" stop-color="#905e26" offset="1"/></radialGradient>            <g fill="url(#SvgjsRadialGradient1013)"><radialGradient id="SvgjsRadialGradient1013"><stop id="SvgjsStop1014" stop-color="#f5ec9b" offset="0"/><stop id="SvgjsStop1015" stop-color="#905e26" offset="1"/></radialGradient><defs xmlns="http://www.w3.org/2000/svg"/><g xmlns="http://www.w3.org/2000/svg"><path d="M0 285c39,-16 23,-71 94,-48 77,14 144,3 187,-92 16,-45 28,-98 38,-145 -233,88 -272,34 -296,244 36,-199 80,-146 284,-229 -46,176 -125,234 -221,209 -53,-16 -55,28 -86,61zm269 -229c-74,49 -194,36 -213,147 9,-17 20,-31 32,-43 28,-9 57,5 84,-3 -25,2 -51,-10 -74,-6 27,-21 58,-33 89,-46 25,-4 51,6 74,-1 -18,2 -38,-5 -57,-7 25,-10 47,-22 65,-41z" fill="url(#SvgjsRadialGradient1013)"/></g></g>        </g></svg>